<svg width="24" height="24" viewBox="0 0 24 24" fill="none" xmlns="http://www.w3.org/2000/svg">
<path fill-rule="evenodd" clip-rule="evenodd" d="M8 3C5.79086 3 4 4.79086 4 7C4 9.20914 5.79086 11 8 11C10.2091 11 12 9.20914 12 7C12 4.79086 10.2091 3 8 3ZM8 1C11.3137 1 14 3.68629 14 7C14 10.3137 11.3137 13 8 13C4.68629 13 2 10.3137 2 7C2 3.68629 4.68629 1 8 1ZM2 22.099C2 22.6513 1.55228 23.099 1 23.099C0.447715 23.099 0 22.6513 0 22.099V20C0 17.2386 2.23858 15 5 15H11.0007C13.7621 15 16.0007 17.2386 16.0007 20V22.099C16.0007 22.6513 15.553 23.099 15.0007 23.099C14.4484 23.099 14.0007 22.6513 14.0007 22.099V20C14.0007 18.3431 12.6576 17 11.0007 17H5C3.34315 17 2 18.3431 2 20V22.099ZM15.8011 3.08003C15.2598 2.97016 14.9101 2.44233 15.02 1.90109C15.1299 1.35984 15.6577 1.01014 16.1989 1.12C18.9751 1.68354 21 4.1334 21 7C21 9.8666 18.9751 12.3165 16.1989 12.88C15.6577 12.9899 15.1299 12.6402 15.02 12.0989C14.9101 11.5577 15.2598 11.0298 15.8011 10.92C17.6495 10.5448 19 8.91081 19 7C19 5.08919 17.6495 3.45524 15.8011 3.08003ZM19.0007 17C18.4484 17 18.0007 16.5523 18.0007 16C18.0007 15.4477 18.4484 15 19.0007 15C21.7621 15 24.0007 17.2386 24.0007 20V22.099C24.0007 22.6513 23.553 23.099 23.0007 23.099C22.4484 23.099 22.0007 22.6513 22.0007 22.099V20C22.0007 18.3431 20.6576 17 19.0007 17Z" fill="#758CA3"/>
</svg>
