<svg width="409" height="355" viewBox="0 0 409 355" fill="none" xmlns="http://www.w3.org/2000/svg">
<path d="M319.591 231.593C313.137 236.958 315.276 268.269 295.32 254.785C275.363 241.301 309.402 233.303 307.455 225.66C304.73 214.959 259.722 227.817 267.273 207.321C274.824 186.826 301.731 217.649 308.804 210.019C315.302 203.009 282.914 177.657 298.017 173.342C313.119 169.026 309.867 205.707 319.591 205.704C327.157 205.701 325.749 170.645 339.659 183.05C353.571 195.456 323.162 207.678 327.143 215.376C330.167 221.227 354.11 206.782 353.032 220.266C351.953 233.75 326.379 225.95 319.591 231.593Z" fill="#38BFF2"/>
<path d="M315.276 215.558C315.276 215.558 329.84 233.211 328.221 281.215" stroke="#1A2E35" stroke-width="1.33333" stroke-miterlimit="10" stroke-linecap="round" stroke-linejoin="round"/>
<path d="M286.905 240.535C289.486 235.342 310.876 231.798 298.636 220.526C286.396 209.255 286.435 233.412 280.986 233.319C273.358 233.19 274.842 200.884 262.264 209.223C249.686 217.56 274.69 230.745 270.685 236.715C267.005 242.198 244.809 224.459 244.311 235.298C243.812 246.138 267.955 238.116 269.5 244.654C270.702 249.741 246.91 254.371 257.464 261.75C268.017 269.128 271.396 246.739 277.205 248.191C281.619 249.294 275.718 267.689 284.611 264.818C293.504 261.948 284.192 245.995 286.905 240.535Z" fill="#38BFF2"/>
<g opacity="0.300003">
<g opacity="0.300003">
<path opacity="0.300003" d="M286.905 240.535C289.485 235.342 310.876 231.798 298.636 220.526C286.395 209.255 286.435 233.411 280.985 233.319C273.358 233.19 274.842 200.884 262.264 209.223C249.685 217.56 274.689 230.745 270.685 236.715C267.005 242.198 244.809 224.458 244.311 235.298C243.812 246.138 267.955 238.116 269.5 244.654C270.702 249.741 246.91 254.371 257.464 261.749C268.017 269.128 271.396 246.739 277.205 248.191C281.619 249.294 275.717 267.689 284.61 264.818C293.504 261.948 284.191 245.995 286.905 240.535Z" fill="black"/>
</g>
</g>
<path d="M275.903 240.762C275.903 240.762 317.347 236.447 321.436 281.214" stroke="#1A2E35" stroke-width="1.33333" stroke-miterlimit="10" stroke-linecap="round" stroke-linejoin="round"/>
<path d="M354.911 235.908C361.365 241.273 359.226 272.583 379.183 259.1C399.139 245.615 365.101 237.619 367.047 229.975C369.772 219.273 414.781 232.132 407.23 211.636C399.679 191.14 372.772 221.964 365.698 214.334C359.202 207.323 391.588 181.972 376.486 177.657C361.383 173.342 364.635 210.023 354.911 210.019C347.345 210.015 348.754 174.959 334.843 187.365C320.931 199.77 351.341 211.992 347.36 219.69C344.335 225.542 320.392 211.097 321.47 224.581C322.549 238.064 348.124 230.265 354.911 235.908Z" fill="#38BFF2"/>
<g opacity="0.300003">
<g opacity="0.300003">
<path opacity="0.300003" d="M354.911 235.908C361.365 241.273 359.226 272.583 379.183 259.1C399.139 245.615 365.101 237.619 367.047 229.975C369.772 219.273 414.781 232.132 407.23 211.636C399.679 191.14 372.772 221.964 365.698 214.334C359.202 207.323 391.588 181.972 376.486 177.657C361.383 173.342 364.635 210.023 354.911 210.019C347.345 210.015 348.754 174.959 334.843 187.365C320.931 199.77 351.341 211.992 347.36 219.69C344.335 225.542 320.392 211.097 321.47 224.581C322.549 238.064 348.124 230.265 354.911 235.908Z" fill="white"/>
</g>
</g>
<path d="M359.504 219.873C359.504 219.873 340.627 245.077 336.312 287.148" stroke="#1A2E35" stroke-width="1.33333" stroke-miterlimit="10" stroke-linecap="round" stroke-linejoin="round"/>
<path d="M345.989 352.958H316.561C310.927 352.958 306.232 348.646 305.754 343.032L301.128 288.664C300.589 282.335 305.582 276.899 311.935 276.899H350.615C356.968 276.899 361.961 282.335 361.422 288.664L356.795 343.032C356.318 348.646 351.623 352.958 345.989 352.958Z" fill="#38BFF2"/>
<path d="M345.989 352.958H316.561C310.927 352.958 306.232 348.646 305.754 343.032L301.128 288.664C300.589 282.335 305.582 276.899 311.935 276.899H350.615C356.968 276.899 361.961 282.335 361.422 288.664L356.795 343.032C356.318 348.646 351.623 352.958 345.989 352.958Z" stroke="#1A2E35" stroke-width="1.33333" stroke-miterlimit="10" stroke-linecap="round" stroke-linejoin="round"/>
<path d="M125.64 274.874C135.473 274.874 163.885 268.455 163.885 268.455H87.3944C87.3944 268.455 115.806 274.874 125.64 274.874Z" fill="#1A2E35"/>
<path d="M125.64 274.874C135.473 274.874 163.885 268.455 163.885 268.455H87.3944C87.3944 268.455 115.806 274.874 125.64 274.874Z" stroke="#1A2E35" stroke-width="1.33333" stroke-miterlimit="10" stroke-linecap="round" stroke-linejoin="round"/>
<path d="M116.875 283.678H134.402V271.664H116.875V283.678Z" fill="#868686" stroke="#1A2E35" stroke-width="1.33333" stroke-miterlimit="10" stroke-linecap="round" stroke-linejoin="round"/>
<path d="M114.283 335.34H136.997V283.678H114.283V335.34Z" fill="#9A9A9A" stroke="#1A2E35" stroke-width="1.33333" stroke-miterlimit="10" stroke-linecap="round" stroke-linejoin="round"/>
<path d="M82.978 253.132H97.7387C96.0989 242.962 94.8887 232.598 94.1424 222.324H79.3806C80.1269 232.598 81.3381 242.962 82.978 253.132Z" fill="#868686"/>
<path d="M82.978 253.132H97.7387C96.0989 242.962 94.8887 232.598 94.1424 222.324H79.3806C80.1269 232.598 81.3381 242.962 82.978 253.132Z" stroke="#1A2E35" stroke-width="1.33333" stroke-miterlimit="10" stroke-linecap="round" stroke-linejoin="round"/>
<path d="M60.5562 131.339H124.186C131.665 131.339 136.559 137.653 135.114 145.097C131.04 168.004 128.632 190.651 127.839 213.913C127.718 220.654 122.589 225.86 115.844 225.86H62.2792C55.5343 225.86 49.4622 220.654 48.5964 213.913C46.0162 190.898 45.0843 168.255 45.8051 145.097C46.1591 137.653 53.0756 131.339 60.5562 131.339Z" fill="#868686"/>
<path d="M60.5562 131.339H124.186C131.665 131.339 136.559 137.653 135.114 145.097C131.04 168.004 128.632 190.651 127.839 213.913C127.718 220.654 122.589 225.86 115.844 225.86H62.2792C55.5343 225.86 49.4622 220.654 48.5964 213.913C46.0162 190.898 45.0843 168.255 45.8051 145.097C46.1591 137.653 53.0756 131.339 60.5562 131.339Z" stroke="#1A2E35" stroke-width="1.33333" stroke-miterlimit="10" stroke-linecap="round" stroke-linejoin="round"/>
<path d="M57.0906 145.096C56.3687 168.255 57.3017 190.899 59.8819 213.913C60.7477 220.654 66.8198 225.861 73.5647 225.861H115.843C122.589 225.861 127.719 220.654 127.838 213.913C128.633 190.651 131.04 168.004 135.114 145.096C136.56 137.654 131.666 131.339 124.187 131.339H71.8417C64.36 131.339 57.4445 137.654 57.0906 145.096Z" fill="#9A9A9A"/>
<path d="M57.0906 145.096C56.3687 168.255 57.3017 190.899 59.8819 213.913C60.7477 220.654 66.8198 225.861 73.5647 225.861H115.843C122.589 225.861 127.719 220.654 127.838 213.913C128.633 190.651 131.04 168.004 135.114 145.096C136.56 137.654 131.666 131.339 124.187 131.339H71.8417C64.36 131.339 57.4445 137.654 57.0906 145.096Z" stroke="#1A2E35" stroke-width="1.33333" stroke-miterlimit="10" stroke-linecap="round" stroke-linejoin="round"/>
<path d="M87.3938 344.614C87.3938 345.826 88.5102 346.728 89.6947 346.47C96.655 344.952 117.504 340.56 125.639 340.56C133.773 340.56 154.623 344.952 161.583 346.47C162.768 346.728 163.884 345.826 163.884 344.614C163.884 342.264 162.249 340.236 159.951 339.742C151.803 337.992 133.212 334.186 125.639 334.186C118.067 334.186 99.4752 337.992 91.3271 339.742C89.0294 340.236 87.3938 342.264 87.3938 344.614Z" fill="#1A2E35"/>
<path d="M87.3938 344.614C87.3938 345.826 88.5102 346.728 89.6947 346.47C96.655 344.952 117.504 340.56 125.639 340.56C133.773 340.56 154.623 344.952 161.583 346.47C162.768 346.728 163.884 345.826 163.884 344.614C163.884 342.264 162.249 340.236 159.951 339.742C151.803 337.992 133.212 334.186 125.639 334.186C118.067 334.186 99.4752 337.992 91.3271 339.742C89.0294 340.236 87.3938 342.264 87.3938 344.614Z" stroke="#1A2E35" stroke-width="1.33333" stroke-miterlimit="10" stroke-linecap="round" stroke-linejoin="round"/>
<path d="M163.885 350.855C165.843 350.855 167.428 349.27 167.428 347.312C167.428 345.356 165.843 343.769 163.885 343.769C161.929 343.769 160.343 345.356 160.343 347.312C160.343 349.27 161.929 350.855 163.885 350.855ZM163.885 340.771C167.499 340.771 170.426 343.7 170.426 347.312C170.426 350.924 167.499 353.854 163.885 353.854C160.273 353.854 157.344 350.924 157.344 347.312C157.344 343.7 160.273 340.771 163.885 340.771Z" fill="#868686"/>
<path d="M163.885 350.855C165.843 350.855 167.428 349.27 167.428 347.312C167.428 345.356 165.843 343.769 163.885 343.769C161.929 343.769 160.343 345.356 160.343 347.312C160.343 349.27 161.929 350.855 163.885 350.855ZM163.885 340.771C167.499 340.771 170.426 343.7 170.426 347.312C170.426 350.924 167.499 353.854 163.885 353.854C160.273 353.854 157.344 350.924 157.344 347.312C157.344 343.7 160.273 340.771 163.885 340.771Z" stroke="#1A2E35" stroke-width="1.33333" stroke-miterlimit="10" stroke-linecap="round" stroke-linejoin="round"/>
<path d="M125.639 350.855C127.596 350.855 129.181 349.27 129.181 347.312C129.181 345.356 127.596 343.769 125.639 343.769C123.683 343.769 122.096 345.356 122.096 347.312C122.096 349.27 123.683 350.855 125.639 350.855ZM125.639 340.771C129.252 340.771 132.181 343.7 132.181 347.312C132.181 350.924 129.252 353.854 125.639 353.854C122.026 353.854 119.098 350.924 119.098 347.312C119.098 343.7 122.026 340.771 125.639 340.771Z" fill="#868686"/>
<path d="M125.639 350.855C127.596 350.855 129.181 349.27 129.181 347.312C129.181 345.356 127.596 343.769 125.639 343.769C123.683 343.769 122.096 345.356 122.096 347.312C122.096 349.27 123.683 350.855 125.639 350.855ZM125.639 340.771C129.252 340.771 132.181 343.7 132.181 347.312C132.181 350.924 129.252 353.854 125.639 353.854C122.026 353.854 119.098 350.924 119.098 347.312C119.098 343.7 122.026 340.771 125.639 340.771Z" stroke="#1A2E35" stroke-width="1.33333" stroke-miterlimit="10" stroke-linecap="round" stroke-linejoin="round"/>
<path d="M88.1872 350.855C90.1448 350.855 91.7303 349.27 91.7303 347.312C91.7303 345.356 90.1448 343.769 88.1872 343.769C86.2307 343.769 84.6453 345.356 84.6453 347.312C84.6453 349.27 86.2307 350.855 88.1872 350.855ZM88.1872 340.771C91.8007 340.771 94.7296 343.7 94.7296 347.312C94.7296 350.924 91.8007 353.854 88.1872 353.854C84.5749 353.854 81.646 350.924 81.646 347.312C81.646 343.7 84.5749 340.771 88.1872 340.771Z" fill="#868686"/>
<path d="M88.1872 350.855C90.1448 350.855 91.7303 349.27 91.7303 347.312C91.7303 345.356 90.1448 343.769 88.1872 343.769C86.2307 343.769 84.6453 345.356 84.6453 347.312C84.6453 349.27 86.2307 350.855 88.1872 350.855ZM88.1872 340.771C91.8007 340.771 94.7296 343.7 94.7296 347.312C94.7296 350.924 91.8007 353.854 88.1872 353.854C84.5749 353.854 81.646 350.924 81.646 347.312C81.646 343.7 84.5749 340.771 88.1872 340.771Z" stroke="#1A2E35" stroke-width="1.33333" stroke-miterlimit="10" stroke-linecap="round" stroke-linejoin="round"/>
<path d="M106.251 251.064C131.993 251.86 157.119 250.749 182.69 247.684C187.896 246.984 192.106 250.548 192.106 255.772V257.021C192.106 262.246 187.896 267.154 182.69 267.855C157.119 270.919 131.993 272.03 106.251 271.233V251.064Z" fill="#9A9A9A"/>
<path d="M106.251 251.064C131.993 251.86 157.119 250.749 182.69 247.684C187.896 246.984 192.106 250.548 192.106 255.772V257.021C192.106 262.246 187.896 267.154 182.69 267.855C157.119 270.919 131.993 272.03 106.251 271.233V251.064Z" stroke="#1A2E35" stroke-width="1.33333" stroke-miterlimit="10" stroke-linecap="round" stroke-linejoin="round"/>
<path d="M66.1601 267.52C82.0041 269.501 97.7106 270.82 113.664 271.505C117.553 271.614 120.708 268.5 120.708 264.62V258.497C120.708 254.618 117.553 251.444 113.664 251.335C97.7106 250.65 82.0041 249.332 66.1601 247.351C62.2972 246.809 59.1721 249.456 59.1721 253.334V259.458C59.1721 263.338 62.2972 266.979 66.1601 267.52Z" fill="#868686"/>
<path d="M66.1601 267.52C82.0041 269.501 97.7106 270.82 113.664 271.505C117.553 271.614 120.708 268.5 120.708 264.62V258.497C120.708 254.618 117.553 251.444 113.664 251.335C97.7106 250.65 82.0041 249.332 66.1601 247.351C62.2972 246.809 59.1721 249.456 59.1721 253.334V259.458C59.1721 263.338 62.2972 266.979 66.1601 267.52Z" stroke="#1A2E35" stroke-width="1.33333" stroke-miterlimit="10" stroke-linecap="round" stroke-linejoin="round"/>
<path d="M172.246 350.455C172.293 346.893 173.023 339.763 177.214 330.568L182.687 310.843L199.747 318.13L194.949 333.234C194.949 333.234 209.614 340.231 215.029 342.12C218.636 343.376 229.423 345.851 228.89 350.471C228.89 351.846 227.776 352.959 226.402 352.959H174.734C173.352 352.959 172.228 351.837 172.246 350.455Z" fill="white"/>
<path d="M172.246 350.455C172.293 346.893 173.023 339.763 177.214 330.568L182.687 310.843L199.747 318.13L194.949 333.234C194.949 333.234 209.614 340.231 215.029 342.12C218.636 343.376 229.423 345.851 228.89 350.471C228.89 351.846 227.776 352.959 226.402 352.959H174.734C173.352 352.959 172.228 351.837 172.246 350.455Z" stroke="#1A2E35" stroke-width="1.33333" stroke-miterlimit="10" stroke-linecap="round" stroke-linejoin="round"/>
<path d="M181.632 338.921C184.298 340.875 198.514 343.363 194.948 340.52C191.384 337.676 194.948 333.233 194.948 333.233C194.948 333.233 209.614 340.231 215.03 342.119C218.637 343.376 229.423 345.851 228.89 350.471C228.89 351.845 227.776 352.958 226.402 352.958H174.734C173.352 352.958 172.228 351.837 172.245 350.455C172.285 347.447 172.82 341.885 175.51 334.691C178.448 334.727 178.967 336.966 181.632 338.921Z" fill="#38BFF2"/>
<path d="M181.632 338.921C184.298 340.875 198.514 343.363 194.948 340.52C191.384 337.676 194.948 333.233 194.948 333.233C194.948 333.233 209.614 340.231 215.03 342.119C218.637 343.376 229.423 345.851 228.89 350.471C228.89 351.845 227.776 352.958 226.402 352.958H174.734C173.352 352.958 172.228 351.837 172.245 350.455C172.285 347.447 172.82 341.885 175.51 334.691C178.448 334.727 178.967 336.966 181.632 338.921Z" stroke="#1A2E35" stroke-width="1.33333" stroke-miterlimit="10" stroke-linecap="round" stroke-linejoin="round"/>
<path d="M159.904 352.958H122.056C121.273 352.958 120.606 352.404 120.457 351.636C119.877 348.628 120.009 341.901 123.424 332.967L123.759 314.831L143.149 318.129L140.689 333.59C140.689 333.59 148.496 342.18 152.203 343.719C154.81 344.8 160.73 344.914 161.526 351.145C161.65 352.108 160.875 352.958 159.904 352.958Z" fill="white"/>
<path d="M159.904 352.958H122.056C121.273 352.958 120.606 352.404 120.457 351.636C119.877 348.628 120.009 341.901 123.424 332.967L123.759 314.831L143.149 318.129L140.689 333.59C140.689 333.59 148.496 342.18 152.203 343.719C154.81 344.8 160.73 344.914 161.526 351.145C161.65 352.108 160.875 352.958 159.904 352.958Z" stroke="#1A2E35" stroke-width="1.33333" stroke-miterlimit="10" stroke-linecap="round" stroke-linejoin="round"/>
<path d="M129.813 338.989C133.814 341.787 136.763 342.12 134.898 337.923C133.032 333.727 140.688 333.59 140.688 333.59C140.688 333.59 148.495 342.179 152.203 343.719C154.809 344.799 160.731 344.914 161.526 351.144C161.649 352.108 160.876 352.959 159.905 352.959H122.056C121.272 352.959 120.605 352.404 120.458 351.636C119.878 348.627 120.01 341.9 123.424 332.967C126.344 333.678 125.81 336.192 129.813 338.989Z" fill="#38BFF2"/>
<path d="M129.813 338.989C133.814 341.787 136.763 342.12 134.898 337.923C133.032 333.727 140.688 333.59 140.688 333.59C140.688 333.59 148.495 342.179 152.203 343.719C154.809 344.799 160.731 344.914 161.526 351.144C161.649 352.108 160.876 352.959 159.905 352.959H122.056C121.272 352.959 120.605 352.404 120.458 351.636C119.878 348.627 120.01 341.9 123.424 332.967C126.344 333.678 125.81 336.192 129.813 338.989Z" stroke="#1A2E35" stroke-width="1.33333" stroke-miterlimit="10" stroke-linecap="round" stroke-linejoin="round"/>
<path d="M163.673 214.528C163.673 214.528 167.484 218.438 183.083 220.925C198.681 223.413 231.023 231.233 230.667 244.027C230.312 256.822 200.458 325.06 200.458 325.06C200.458 325.06 185.531 322.216 178.6 317.951C178.6 317.951 190.616 269.26 199.624 256.466C199.624 256.466 159.181 251.491 136.815 242.25C114.449 233.009 127.599 211.979 127.599 211.979L163.673 214.528Z" fill="#1A2E35"/>
<path d="M163.673 214.528C163.673 214.528 167.484 218.438 183.083 220.925C198.681 223.413 231.023 231.233 230.667 244.027C230.312 256.822 200.458 325.06 200.458 325.06C200.458 325.06 185.531 322.216 178.6 317.951C178.6 317.951 190.616 269.26 199.624 256.466C199.624 256.466 159.181 251.491 136.815 242.25C114.449 233.009 127.599 211.979 127.599 211.979L163.673 214.528Z" stroke="#1A2E35" stroke-width="1.33333" stroke-miterlimit="10" stroke-linecap="round" stroke-linejoin="round"/>
<path d="M138.263 212.732C138.263 212.732 132.526 222.347 136.815 227.678C141.105 233.009 165.435 242.961 162.688 255.045C159.941 267.128 150.857 284.188 144.932 324.704C144.932 324.704 131.154 322.572 121.913 318.663C121.913 318.663 120.382 277.435 131.098 259.665C131.098 259.665 100.41 253.979 97.3011 243.672C94.1909 233.365 100.009 217.604 100.121 211.979L138.263 212.732Z" fill="#1A2E35"/>
<path d="M138.263 212.732C138.263 212.732 132.526 222.347 136.815 227.678C141.105 233.009 165.435 242.961 162.688 255.045C159.941 267.128 150.857 284.188 144.932 324.704C144.932 324.704 131.154 322.572 121.913 318.663C121.913 318.663 120.382 277.435 131.098 259.665C131.098 259.665 100.41 253.979 97.3011 243.672C94.1909 233.365 100.009 217.604 100.121 211.979L138.263 212.732Z" stroke="#1A2E35" stroke-width="1.33333" stroke-miterlimit="10" stroke-linecap="round" stroke-linejoin="round"/>
<path d="M156.751 227.999C157.431 227.955 158.139 227.962 158.875 228.034" stroke="#808080" stroke-linecap="round" stroke-linejoin="round"/>
<path d="M155.402 221.637C155.402 221.637 149.099 223.491 146.627 231.704C146.431 232.355 147.242 232.853 147.72 232.369C149.032 231.043 151.079 229.413 153.79 228.558" stroke="#808080" stroke-linecap="round" stroke-linejoin="round"/>
<path d="M202.589 256.022C202.589 252.556 217.517 250.691 213.518 247.492C209.52 244.294 200.457 254.689 200.457 254.689" stroke="#808080" stroke-linecap="round" stroke-linejoin="round"/>
<path d="M129.243 269.883C129.243 265.914 143.508 263.752 142.795 259.487C142.083 255.222 133.02 263.619 133.02 263.619" stroke="#808080" stroke-linecap="round" stroke-linejoin="round"/>
<path d="M202.029 325.303L200.459 328.927C200.28 329.339 199.839 329.568 199.402 329.469C195.954 328.692 181.58 325.296 176.533 321.676C176.232 321.461 176.107 321.073 176.195 320.713L177.174 316.673C177.319 316.075 177.99 315.78 178.531 316.076C180.798 317.315 187.123 320.268 201.401 324.028C201.955 324.173 202.256 324.778 202.029 325.303Z" fill="#9A9A9A"/>
<path d="M202.029 325.303L200.459 328.927C200.28 329.339 199.839 329.568 199.402 329.469C195.954 328.692 181.58 325.296 176.533 321.676C176.232 321.461 176.107 321.073 176.195 320.713L177.174 316.673C177.319 316.075 177.99 315.78 178.531 316.076C180.798 317.315 187.123 320.268 201.401 324.028C201.955 324.173 202.256 324.778 202.029 325.303Z" stroke="#1A2E35" stroke-width="1.33333" stroke-miterlimit="10" stroke-linecap="round" stroke-linejoin="round"/>
<path d="M146.668 322.318C146.747 321.773 146.22 321.322 145.705 321.513C144.683 321.893 142.951 322.189 140.35 321.594C136.397 320.691 125.079 317.109 121.713 316.035C121.237 315.883 120.758 316.241 120.758 316.741V321.454C120.758 321.747 120.923 322.008 121.19 322.126C123.837 323.305 138.003 329.373 145.417 327.72C145.713 327.653 145.93 327.401 145.974 327.1L146.668 322.318Z" fill="#9A9A9A"/>
<path d="M146.668 322.318C146.747 321.773 146.22 321.322 145.705 321.513C144.683 321.893 142.951 322.189 140.35 321.594C136.397 320.691 125.079 317.109 121.713 316.035C121.237 315.883 120.758 316.241 120.758 316.741V321.454C120.758 321.747 120.923 322.008 121.19 322.126C123.837 323.305 138.003 329.373 145.417 327.72C145.713 327.653 145.93 327.401 145.974 327.1L146.668 322.318Z" stroke="#1A2E35" stroke-width="1.33333" stroke-miterlimit="10" stroke-linecap="round" stroke-linejoin="round"/>
<path d="M135.266 223.628C135.401 225.088 135.859 226.49 136.814 227.678C139.944 231.566 153.734 237.913 159.903 245.752" stroke="#808080" stroke-width="1.33333" stroke-linecap="round" stroke-linejoin="round"/>
<path d="M135.931 218.206C135.706 218.973 135.515 219.783 135.388 220.607" stroke="#808080" stroke-width="1.33333" stroke-linecap="round" stroke-linejoin="round"/>
<path d="M217.587 344.518C217.587 344.518 216.521 346.206 215.721 349.583H177.215C177.215 349.583 177.113 347.001 175.072 345.185" stroke="#1A2E35" stroke-width="1.33333" stroke-miterlimit="10" stroke-linecap="round" stroke-linejoin="round"/>
<path d="M150.682 344.518C150.682 344.518 145.351 344.918 143.352 349.583H123.227C123.227 349.583 122.161 347.184 122.161 345.185" stroke="#1A2E35" stroke-width="1.33333" stroke-miterlimit="10" stroke-linecap="round" stroke-linejoin="round"/>
<path d="M182.241 154.226C181.747 156.109 181.239 157.973 180.732 159.796C175.401 178.988 168.471 215.506 168.471 215.506C134.352 222.703 98.3674 215.506 98.3674 215.506C98.1712 207.544 99.1404 197.044 100.221 186.014C94.625 184.466 90.5904 179.301 90.3708 170.725C90.1042 160.329 91.9882 141.612 93.0363 132.874C93.9586 125.184 93.3029 120.612 105.213 114.786C111.181 111.34 121.092 109.71 133.286 108.084C157.276 104.886 174.587 109.733 180.732 112.349C185.602 111.067 186.957 116.786 186.957 116.786C189.656 114.742 192.789 123.38 192.789 123.38C200.68 133.45 206.887 150.405 208.95 156.452C209.402 157.777 210.248 158.921 211.36 159.769C216.958 164.037 213.846 169.314 213.846 169.314L202.384 172.827C202.384 172.827 196.832 174.272 192.589 166.969C189.04 160.86 183.241 150.504 182.241 154.226Z" fill="#38BFF2"/>
<g opacity="0.300003">
<g opacity="0.300003">
<path opacity="0.300003" d="M200.273 168.007C200.273 168.007 200.54 162.677 204.805 161.744C209.07 160.811 203.605 159.219 200.273 160.016C196.941 160.811 197.709 157.879 194.86 153.081C192.01 148.283 190.611 144.49 188.178 147.257C185.745 150.023 183.268 150.404 182.241 154.226C181.215 158.047 186.279 166.968 186.279 166.968L194.235 173.139L198.274 175.404H204.307L206.367 170.19L200.273 168.007Z" fill="black"/>
</g>
</g>
<path d="M182.242 154.226C181.747 156.109 181.24 157.973 180.732 159.796C175.401 178.988 168.472 215.506 168.472 215.506C134.353 222.703 98.3679 215.506 98.3679 215.506C98.1717 207.544 99.1409 197.044 100.221 186.014C94.6255 184.466 90.5909 179.301 90.3713 170.725C90.1047 160.329 91.9887 141.611 93.0368 132.874C93.9591 125.184 93.3033 120.612 105.213 114.785C111.182 111.339 121.092 109.71 133.287 108.084C157.276 104.886 174.588 109.733 180.732 112.349C185.603 111.066 186.958 116.786 186.958 116.786C189.656 114.742 192.789 123.38 192.789 123.38C200.68 133.45 206.888 150.405 208.951 156.452C209.403 157.776 210.248 158.92 211.36 159.769C216.958 164.037 213.847 169.314 213.847 169.314L202.385 172.827C202.385 172.827 196.832 174.272 192.59 166.969C189.04 160.86 183.241 150.504 182.242 154.226Z" stroke="#1A2E35" stroke-width="1.33333" stroke-miterlimit="10" stroke-linecap="round" stroke-linejoin="round"/>
<g opacity="0.300003">
<g opacity="0.300003">
<path opacity="0.300003" d="M98.3689 215.506C98.2271 209.746 98.6984 202.647 99.3765 194.991C98.2143 211.222 132.024 216.301 133.09 207.504C134.157 198.702 100.222 186.014 118.687 190.45C134.802 194.32 166.022 190.622 173.705 189.619C170.754 203.487 168.473 215.506 168.473 215.506C134.354 222.703 98.3689 215.506 98.3689 215.506Z" fill="black"/>
</g>
</g>
<g opacity="0.300003">
<g opacity="0.300003">
<path opacity="0.300003" d="M113.871 133.94C113.871 133.94 118.695 148.067 118.686 155.531C118.675 162.987 132.22 167.997 132.244 168.007C124.991 166.528 117.93 164.578 114.555 163.603C113.358 163.258 112.575 162.121 112.684 160.88C113.349 153.228 114.07 142.924 113.87 133.94H113.871Z" fill="black"/>
</g>
</g>
<path d="M186.71 130.383C186.71 130.383 186.872 140.545 183.154 149.885C182.808 150.751 183.792 151.541 184.55 150.998C186.379 149.689 188.966 147.02 191.305 141.645" stroke="#1A2E35" stroke-miterlimit="10" stroke-linecap="round" stroke-linejoin="round"/>
<path d="M96.235 173.923C99.0477 164.595 103.916 162.258 107.689 162.024C108.296 161.986 108.498 161.193 107.964 160.904C105.774 159.718 101.501 158.781 96.235 164.593" stroke="#1A2E35" stroke-miterlimit="10" stroke-linecap="round" stroke-linejoin="round"/>
<path d="M150.322 147.219C150.322 148.104 151.039 148.82 151.923 148.82C152.808 148.82 153.526 148.104 153.526 147.219C153.526 146.334 152.808 145.617 151.923 145.617C151.039 145.617 150.322 146.334 150.322 147.219Z" fill="#9A9A9A"/>
<path d="M150.322 147.219C150.322 148.104 151.039 148.82 151.923 148.82C152.808 148.82 153.526 148.104 153.526 147.219C153.526 146.334 152.808 145.617 151.923 145.617C151.039 145.617 150.322 146.334 150.322 147.219Z" stroke="#1A2E35" stroke-miterlimit="10" stroke-linecap="round" stroke-linejoin="round"/>
<path d="M148.151 165.367C148.151 166.252 148.868 166.969 149.753 166.969C150.638 166.969 151.355 166.252 151.355 165.367C151.355 164.482 150.638 163.765 149.753 163.765C148.868 163.765 148.151 164.482 148.151 165.367Z" fill="#9A9A9A"/>
<path d="M148.151 165.367C148.151 166.252 148.868 166.969 149.753 166.969C150.638 166.969 151.355 166.252 151.355 165.367C151.355 164.482 150.638 163.765 149.753 163.765C148.868 163.765 148.151 164.482 148.151 165.367Z" stroke="#1A2E35" stroke-miterlimit="10" stroke-linecap="round" stroke-linejoin="round"/>
<path d="M142.795 209.105C142.795 209.99 143.513 210.708 144.398 210.708C145.281 210.708 145.999 209.99 145.999 209.105C145.999 208.22 145.281 207.504 144.398 207.504C143.513 207.504 142.795 208.22 142.795 209.105Z" fill="#9A9A9A"/>
<path d="M142.795 209.105C142.795 209.99 143.513 210.708 144.398 210.708C145.281 210.708 145.999 209.99 145.999 209.105C145.999 208.22 145.281 207.504 144.398 207.504C143.513 207.504 142.795 208.22 142.795 209.105Z" stroke="#1A2E35" stroke-width="1.33333" stroke-miterlimit="10" stroke-linecap="round" stroke-linejoin="round"/>
<path d="M173.412 177.255C173.412 177.255 178.649 182.251 176.158 182.329C173.669 182.407 170.518 178.987 167.629 178.587C164.74 178.188 169.405 176.422 169.405 176.422L173.412 177.255Z" fill="white"/>
<path d="M173.412 177.255C173.412 177.255 178.649 182.251 176.158 182.329C173.669 182.407 170.518 178.987 167.629 178.587C164.74 178.188 169.405 176.422 169.405 176.422L173.412 177.255Z" stroke="#1A2E35" stroke-width="1.33333" stroke-miterlimit="10" stroke-linecap="round" stroke-linejoin="round"/>
<path d="M142.843 171.643C143.312 171.216 143.947 171.014 144.581 171.065C147.146 171.271 154.494 171.829 157.276 171.657C162.196 171.354 176.704 168.28 176.704 168.28C177.039 168.223 177.385 168.242 177.712 168.338L186.696 170.977C187.023 171.074 187.324 171.243 187.576 171.475L193.013 176.472C193.193 176.637 193.344 176.83 193.461 177.045L194.587 179.11C195.065 179.983 194.903 181.068 194.193 181.765L185.195 182.046C184.639 182.063 184.098 181.873 183.676 181.511L181.011 179.226C180.834 179.074 180.684 178.894 180.56 178.695C179.903 177.642 177.392 174.115 173.411 174.456C173.411 174.456 181.932 178.987 180.333 180.853C178.734 182.719 172.203 177.388 170.071 177.921C167.984 178.443 167.796 183.684 156.191 181.789C155.676 181.705 155.141 181.725 154.639 181.865L144.085 184.816C142.763 185.186 141.405 184.393 141.065 183.064C140.275 179.976 139.554 174.64 142.843 171.643Z" fill="white"/>
<path d="M142.843 171.643C143.312 171.216 143.947 171.014 144.581 171.065C147.146 171.271 154.494 171.829 157.276 171.657C162.196 171.354 176.704 168.28 176.704 168.28C177.039 168.223 177.385 168.242 177.712 168.338L186.696 170.977C187.023 171.074 187.324 171.243 187.576 171.475L193.013 176.472C193.193 176.637 193.344 176.83 193.461 177.045L194.587 179.11C195.065 179.983 194.903 181.068 194.193 181.765L185.195 182.046C184.639 182.063 184.098 181.873 183.676 181.511L181.011 179.226C180.834 179.074 180.684 178.894 180.56 178.695C179.903 177.642 177.392 174.115 173.411 174.456C173.411 174.456 181.932 178.987 180.333 180.853C178.734 182.719 172.203 177.388 170.071 177.921C167.984 178.443 167.796 183.684 156.191 181.789C155.676 181.705 155.141 181.725 154.639 181.865L144.085 184.816C142.763 185.186 141.405 184.393 141.065 183.064C140.275 179.976 139.554 174.64 142.843 171.643Z" stroke="#1A2E35" stroke-width="1.33333" stroke-miterlimit="10" stroke-linecap="round" stroke-linejoin="round"/>
<path d="M175.449 170.191L177.713 170.573C178.816 170.759 179.846 171.248 180.688 171.984L183.04 174.043C183.455 174.406 183.818 174.823 184.119 175.283L185.663 177.645C185.833 177.905 186.025 178.149 186.234 178.379C187.151 179.39 189.674 182.392 186.948 181.992" fill="white"/>
<path d="M175.449 170.191L177.713 170.573C178.816 170.759 179.846 171.248 180.688 171.984L183.04 174.043C183.455 174.406 183.818 174.823 184.119 175.283L185.663 177.645C185.833 177.905 186.025 178.149 186.234 178.379C187.151 179.39 189.674 182.392 186.948 181.992" stroke="#1A2E35" stroke-width="1.33333" stroke-miterlimit="10" stroke-linecap="round" stroke-linejoin="round"/>
<path d="M181.813 170.991L184.154 171.623C184.882 171.82 185.549 172.198 186.094 172.721L187.918 174.473C188.091 174.639 188.251 174.818 188.395 175.011L191.389 178.987C191.389 178.987 192.992 181.803 191.389 181.853" fill="white"/>
<path d="M181.813 170.991L184.154 171.623C184.882 171.82 185.549 172.198 186.094 172.721L187.918 174.473C188.091 174.639 188.251 174.818 188.395 175.011L191.389 178.987C191.389 178.987 192.992 181.803 191.389 181.853" stroke="#1A2E35" stroke-width="1.33333" stroke-miterlimit="10" stroke-linecap="round" stroke-linejoin="round"/>
<path d="M113.801 131.678C114.195 141.148 113.406 152.578 112.683 160.88C112.575 162.121 113.357 163.257 114.554 163.603C119.209 164.947 130.882 168.154 140.397 169.409" stroke="#1A2E35" stroke-width="1.33333" stroke-miterlimit="10" stroke-linecap="round" stroke-linejoin="round"/>
<path d="M113.27 125.067C113.409 126.151 113.523 127.291 113.614 128.476" stroke="#1A2E35" stroke-miterlimit="10" stroke-linecap="round" stroke-linejoin="round"/>
<path d="M109.691 115.081C110.914 116.133 111.814 118.082 112.461 120.646" stroke="#1A2E35" stroke-miterlimit="10" stroke-linecap="round" stroke-linejoin="round"/>
<path d="M163.077 108.75C163.077 108.75 162.411 106.618 158.812 105.418C155.214 104.219 142.762 102.297 136.355 105.418C129.946 108.539 142.22 125.477 142.22 125.477L147.95 133.339L153.014 137.138L155.281 130.384L158.213 127.342C158.213 127.342 164.543 122.145 164.01 117.013C163.477 111.883 163.077 108.75 163.077 108.75Z" fill="white"/>
<path d="M136.906 108.046C145.37 134.617 152.833 135.805 152.833 135.805C155.321 126.032 157.453 128.165 160.83 122.057C163.539 117.158 162.622 110.946 162.155 108.683C162.041 108.133 161.692 107.655 161.191 107.4C152.793 103.125 142.516 104.697 138.278 105.633C137.2 105.871 136.571 106.995 136.906 108.046ZM131.621 108.308C132.621 104.802 137.195 103.819 137.195 103.819C159.052 100.087 163.673 108.032 163.673 108.032C168.115 120.419 163.673 130.383 163.673 130.383C163.673 130.383 157.453 127.809 156.387 130.383C155.321 132.957 153.366 138.471 153.366 138.471C153.366 138.471 149.101 136.338 145.725 131.896C142.349 127.453 134.408 131.896 134.408 131.896C129.311 123.011 131.621 108.308 131.621 108.308" fill="#38BFF2"/>
<g opacity="0.399994">
<g opacity="0.399994">
<path opacity="0.399994" d="M136.906 108.046C145.37 134.618 152.833 135.805 152.833 135.805C155.321 126.032 157.453 128.165 160.83 122.058C163.539 117.158 162.622 110.946 162.155 108.683C162.041 108.133 161.692 107.655 161.191 107.4C152.793 103.125 142.517 104.697 138.278 105.633C137.2 105.871 136.571 106.995 136.906 108.046ZM131.621 108.309C132.621 104.802 137.195 103.819 137.195 103.819C159.053 100.087 163.674 108.032 163.674 108.032C168.115 120.419 163.674 130.384 163.674 130.384C163.674 130.384 157.453 127.809 156.387 130.384C155.321 132.957 153.366 138.471 153.366 138.471C153.366 138.471 149.102 136.338 145.725 131.897C142.349 127.454 134.408 131.897 134.408 131.897C129.311 123.011 131.621 108.309 131.621 108.309" fill="white"/>
</g>
</g>
<path d="M136.906 108.046C145.369 134.617 152.833 135.805 152.833 135.805C155.32 126.032 157.453 128.165 160.829 122.057C163.539 117.158 162.622 110.946 162.155 108.683C162.041 108.133 161.692 107.655 161.191 107.4C152.792 103.125 142.516 104.697 138.278 105.633C137.2 105.871 136.571 106.995 136.906 108.046ZM131.62 108.308C132.621 104.802 137.195 103.819 137.195 103.819C159.052 100.087 163.673 108.032 163.673 108.032C168.115 120.419 163.673 130.383 163.673 130.383C163.673 130.383 157.453 127.809 156.387 130.383C155.32 132.957 153.366 138.471 153.366 138.471C153.366 138.471 149.101 136.338 145.724 131.896C142.349 127.453 134.408 131.896 134.408 131.896C129.311 123.011 131.62 108.308 131.62 108.308V108.308Z" stroke="#1A2E35" stroke-width="1.33333" stroke-miterlimit="10" stroke-linecap="round" stroke-linejoin="round"/>
<path d="M167.305 67.705C167.305 67.705 186.141 71.4773 175.767 83.7292C164.262 97.3171 167.305 67.705 167.305 67.705Z" fill="#1A2E35"/>
<path d="M167.305 67.705C167.305 67.705 186.141 71.4773 175.767 83.7292C164.262 97.3171 167.305 67.705 167.305 67.705Z" stroke="#1A2E35" stroke-width="1.33333" stroke-miterlimit="10" stroke-linecap="round" stroke-linejoin="round"/>
<path d="M174.733 97.599C174.733 97.599 179.211 79.4733 170.681 70.7655C162.152 62.0587 152.911 60.2813 145.98 64.5462C139.05 68.8111 136.207 79.4733 137.274 84.9824C138.34 90.4905 137.82 110.216 147.321 118.39C156.821 126.565 162.668 124.55 168.95 113.414C173.078 106.098 175.053 103.996 174.733 97.599Z" fill="white"/>
<path d="M174.733 97.599C174.733 97.599 179.211 79.4733 170.681 70.7655C162.152 62.0587 152.911 60.2813 145.98 64.5462C139.05 68.8111 136.207 79.4733 137.274 84.9824C138.34 90.4905 137.82 110.216 147.321 118.39C156.821 126.565 162.668 124.55 168.95 113.414C173.078 106.098 175.053 103.996 174.733 97.599Z" stroke="#1A2E35" stroke-width="1.33333" stroke-miterlimit="10" stroke-linecap="round" stroke-linejoin="round"/>
<path d="M141.719 94.0454C141.719 94.0454 148.88 86.9369 151.073 78.5853C153.266 70.2336 154.51 68.8112 162.684 72.8991C170.859 76.9859 183.613 71.4842 180.277 61.1707C176.77 50.3305 166.061 64.3694 155.754 60.8146C145.447 57.2609 138.137 63.6582 138.121 73.0761C138.121 73.0761 131.892 79.1184 138.137 94.7566L141.719 94.0454Z" fill="#1A2E35"/>
<path d="M141.719 94.0454C141.719 94.0454 148.88 86.9369 151.073 78.5853C153.266 70.2336 154.51 68.8112 162.684 72.8991C170.859 76.9859 183.613 71.4842 180.277 61.1707C176.77 50.3305 166.061 64.3694 155.754 60.8146C145.447 57.2609 138.137 63.6582 138.121 73.0761C138.121 73.0761 131.892 79.1184 138.137 94.7566L141.719 94.0454Z" stroke="#1A2E35" stroke-width="1.33333" stroke-miterlimit="10" stroke-linecap="round" stroke-linejoin="round"/>
<path d="M143.966 92.8531C143.966 92.8531 142.154 82.9171 137.114 83.8383C132.075 84.7606 135.678 99.4211 141.606 97.8217" fill="white"/>
<path d="M143.966 92.8531C143.966 92.8531 142.154 82.9171 137.114 83.8383C132.075 84.7606 135.678 99.4211 141.606 97.8217" stroke="#1A2E35" stroke-width="1.33333" stroke-miterlimit="10" stroke-linecap="round" stroke-linejoin="round"/>
<path d="M167.927 96.222C167.927 96.222 169.902 105.443 169.26 107.028C168.617 108.614 162.512 107.4 162.512 107.4" fill="white"/>
<path d="M167.927 96.222C167.927 96.222 169.902 105.443 169.26 107.028C168.617 108.614 162.512 107.4 162.512 107.4" stroke="#1A2E35" stroke-width="1.33333" stroke-miterlimit="10" stroke-linecap="round" stroke-linejoin="round"/>
<path d="M161.663 111.416C161.663 111.416 156.882 113.304 152.675 107.028Z" fill="white"/>
<path d="M161.663 111.416C161.663 111.416 156.882 113.304 152.675 107.028" stroke="#1A2E35" stroke-width="1.33333" stroke-miterlimit="10" stroke-linecap="round" stroke-linejoin="round"/>
<path d="M171.198 96.991C171.02 97.8504 171.244 98.6234 171.699 98.7183C172.153 98.8121 172.668 98.1926 172.846 97.3332C173.024 96.4739 172.8 95.7009 172.345 95.607C171.89 95.5121 171.377 96.1316 171.198 96.991Z" fill="#1A2E35"/>
<path d="M159.505 96.0513C159.327 96.9106 159.551 97.6836 160.006 97.7775C160.46 97.8724 160.975 97.2518 161.154 96.3935C161.332 95.5341 161.108 94.7611 160.652 94.6662C160.197 94.5724 159.683 95.1919 159.505 96.0513Z" fill="#1A2E35"/>
<path d="M168.74 96.5916C168.499 99.0066 170.927 101.228 174.163 101.551C177.399 101.874 180.218 100.178 180.46 97.7634C180.701 95.3474 178.158 94.2811 174.922 93.9581C171.686 93.635 168.982 94.1756 168.74 96.5916Z" stroke="#1A2E35" stroke-width="1.33333" stroke-miterlimit="10" stroke-linecap="round" stroke-linejoin="round"/>
<path d="M153.651 95.083C153.409 97.499 155.838 99.7189 159.074 100.042C162.31 100.366 165.129 98.6697 165.37 96.2548C165.612 93.8387 163.069 92.7736 159.833 92.4505C156.597 92.1274 153.893 92.668 153.651 95.083Z" stroke="#1A2E35" stroke-width="1.33333" stroke-miterlimit="10" stroke-linecap="round" stroke-linejoin="round"/>
<path d="M168.74 96.5917L165.37 96.2548Z" fill="white"/>
<path d="M168.74 96.5917L165.37 96.2548" stroke="#1A2E35" stroke-width="1.33333" stroke-miterlimit="10" stroke-linecap="round" stroke-linejoin="round"/>
<path d="M154.066 93.8735L141.671 86.5646Z" fill="white"/>
<path d="M154.066 93.8735L141.671 86.5646" stroke="#1A2E35" stroke-width="1.33333" stroke-miterlimit="10" stroke-linecap="round" stroke-linejoin="round"/>
<path d="M139.545 105.242L138.961 106.662Z" fill="white"/>
<path d="M139.545 105.242L138.961 106.662" stroke="#1A2E35" stroke-width="1.33333" stroke-miterlimit="10" stroke-linecap="round" stroke-linejoin="round"/>
<path d="M175.728 92.6944C175.728 92.6944 173.841 90.2922 171.524 91.4491Z" fill="white"/>
<path d="M175.728 92.6944C175.728 92.6944 173.841 90.2922 171.524 91.4491" stroke="#1A2E35" stroke-width="1.33333" stroke-miterlimit="10" stroke-linecap="round" stroke-linejoin="round"/>
<path d="M156.41 91.6208C156.41 91.6208 159.727 88.4595 162.918 90.6772Z" fill="white"/>
<path d="M156.41 91.6208C156.41 91.6208 159.727 88.4595 162.918 90.6772" stroke="#1A2E35" stroke-width="1.33333" stroke-miterlimit="10" stroke-linecap="round" stroke-linejoin="round"/>
<path d="M171.541 62.3669C166.498 63.9705 158.009 65.9281 151.073 63.8351C140.471 60.6365 144.069 72.5739 141.67 75.8685" stroke="#808080" stroke-width="1.33333" stroke-linecap="round" stroke-linejoin="round"/>
<path d="M175.907 60.7703C175.907 60.7703 175.06 61.1435 173.626 61.6595" stroke="#808080" stroke-width="1.33333" stroke-linecap="round" stroke-linejoin="round"/>
<path d="M163.169 68.3099C162.604 68.1371 162.012 67.9356 161.396 67.7053" stroke="#808080" stroke-width="1.33333" stroke-linecap="round" stroke-linejoin="round"/>
<path d="M174.733 66.901C174.733 66.901 172.48 70.394 165.199 68.8394" stroke="#808080" stroke-width="1.33333" stroke-linecap="round" stroke-linejoin="round"/>
<path d="M147.657 73.7384C147.209 76.7718 146.061 81.171 143.137 85.1597" stroke="#808080" stroke-width="1.33333" stroke-linecap="round" stroke-linejoin="round"/>
<path d="M147.935 69.9664C147.935 69.9664 147.962 70.6829 147.869 71.8739" stroke="#808080" stroke-width="1.33333" stroke-linecap="round" stroke-linejoin="round"/>
<g opacity="0.300003">
<g opacity="0.300003">
<path opacity="0.300003" d="M138.451 184.343C139.309 185.111 138.81 186.527 137.658 186.533C130.459 186.566 111.034 186.614 103.501 186.185C94.1716 185.652 101.292 175.5 108.794 179.376C115.707 182.949 130.25 177.001 138.451 184.343Z" fill="black"/>
</g>
</g>
<path d="M219.643 174.348C219.643 174.348 215.286 162.737 204.348 164.58C193.298 166.442 201.769 175.581 207.028 176.398C207.028 176.398 207.827 173.21 219.643 174.348Z" fill="white"/>
<path d="M219.643 174.348C219.643 174.348 215.286 162.737 204.348 164.58C193.298 166.442 201.769 175.581 207.028 176.398C207.028 176.398 207.827 173.21 219.643 174.348Z" stroke="#1A2E35" stroke-width="1.33333" stroke-miterlimit="10" stroke-linecap="round" stroke-linejoin="round"/>
<path d="M228.907 180.936C230.351 182.379 233.813 182.503 231.484 179.376C228.907 175.916 226.003 174.756 224.02 173.871C218.831 171.555 216.809 172.019 212.114 170.99C207.419 169.962 206.542 171.871 204.917 172.761C201.049 174.882 200.119 175.25 199.141 177.382C198.165 179.515 197.098 182.29 200.119 182.29C202.873 182.29 203.051 177.737 205.717 177.915C208.382 178.092 209.715 182.29 211.581 182.29H212.292C213.891 182.29 213.978 180.959 212.999 178.868C212.02 176.777 210.959 174.894 210.959 174.894C210.959 174.894 213.277 175.949 214.558 178.67C215.837 181.391 216.073 182.537 218.425 182.537C220.777 182.537 220.615 180.79 218.275 176.931C218.275 176.931 220.382 178.089 221.535 180.267C222.688 182.447 223.288 182.29 224.799 182.29C226.774 182.29 226.641 179.025 223.131 176.893C223.131 176.893 223.91 175.938 228.907 180.936Z" fill="white"/>
<path d="M228.907 180.936C230.351 182.379 233.813 182.503 231.484 179.376C228.907 175.916 226.003 174.756 224.02 173.871C218.831 171.555 216.809 172.019 212.114 170.99C207.419 169.962 206.542 171.871 204.917 172.761C201.049 174.882 200.119 175.25 199.141 177.382C198.165 179.515 197.098 182.29 200.119 182.29C202.873 182.29 203.051 177.737 205.717 177.915C208.382 178.092 209.715 182.29 211.581 182.29H212.292C213.891 182.29 213.978 180.959 212.999 178.868C212.02 176.777 210.959 174.894 210.959 174.894C210.959 174.894 213.277 175.949 214.558 178.67C215.837 181.391 216.073 182.537 218.425 182.537C220.777 182.537 220.615 180.79 218.275 176.931C218.275 176.931 220.382 178.089 221.535 180.267C222.688 182.447 223.288 182.29 224.799 182.29C226.774 182.29 226.641 179.025 223.131 176.893C223.131 176.893 223.91 175.938 228.907 180.936Z" stroke="#1A2E35" stroke-width="1.33333" stroke-miterlimit="10" stroke-linecap="round" stroke-linejoin="round"/>
<path d="M215.199 173.139C215.199 173.139 216.579 173.073 217.445 175.405Z" fill="white"/>
<path d="M215.199 173.139C215.199 173.139 216.579 173.073 217.445 175.405" stroke="#1A2E35" stroke-miterlimit="10" stroke-linecap="round" stroke-linejoin="round"/>
<path d="M40.0002 72.7538C33.1987 78.0998 26.6426 83.9064 20.3732 90.1758" stroke="#1A2E35" stroke-miterlimit="10" stroke-linecap="round" stroke-linejoin="round"/>
<path d="M47.4396 67.1594C46.1356 68.0966 44.8401 69.0498 43.5532 70.019" stroke="#1A2E35" stroke-miterlimit="10" stroke-linecap="round" stroke-linejoin="round"/>
<path d="M54.8694 62.0479C53.5324 62.9275 52.2028 63.8231 50.8818 64.7347" stroke="#1A2E35" stroke-miterlimit="10" stroke-linecap="round" stroke-linejoin="round"/>
<path d="M109.416 36.2447C91.9786 41.6792 75.0887 49.3549 59.1988 59.2739" stroke="#1A2E35" stroke-miterlimit="10" stroke-linecap="round" stroke-linejoin="round"/>
<path d="M121.064 32.9674C118.904 33.5101 116.752 34.0869 114.605 34.6979" stroke="#1A2E35" stroke-miterlimit="10" stroke-linecap="round" stroke-linejoin="round"/>
<path d="M133.041 30.3102C130.697 30.7612 128.36 31.2516 126.031 31.7794" stroke="#1A2E35" stroke-miterlimit="10" stroke-linecap="round" stroke-linejoin="round"/>
<path d="M143.717 28.5281C141.695 28.815 139.678 29.1284 137.663 29.4717" stroke="#1A2E35" stroke-miterlimit="10" stroke-linecap="round" stroke-linejoin="round"/>
<path d="M208.023 28.9576C188.259 25.889 168.154 25.5457 148.314 27.9265" stroke="#1A2E35" stroke-miterlimit="10" stroke-linecap="round" stroke-linejoin="round"/>
<path d="M216.821 30.5081C215.006 30.1499 213.188 29.8151 211.366 29.5037" stroke="#1A2E35" stroke-miterlimit="10" stroke-linecap="round" stroke-linejoin="round"/>
<path d="M225.355 32.3713C223.539 31.9363 221.719 31.5258 219.895 31.1377" stroke="#1A2E35" stroke-miterlimit="10" stroke-linecap="round" stroke-linejoin="round"/>
<path d="M235.852 35.163C234 34.6203 232.141 34.1031 230.278 33.6106" stroke="#1A2E35" stroke-miterlimit="10" stroke-linecap="round" stroke-linejoin="round"/>
<path d="M299.302 65.6646C281.349 53.0778 261.921 43.5149 241.728 36.9748" stroke="#1A2E35" stroke-miterlimit="10" stroke-linecap="round" stroke-linejoin="round"/>
<path d="M307.874 71.9937C306.207 70.6982 304.523 69.4294 302.828 68.1894" stroke="#1A2E35" stroke-miterlimit="10" stroke-linecap="round" stroke-linejoin="round"/>
<path d="M316.47 79.0282C314.642 77.4534 312.793 75.9138 310.927 74.4083" stroke="#1A2E35" stroke-miterlimit="10" stroke-linecap="round" stroke-linejoin="round"/>
<path d="M328.474 90.1757C325.972 87.6744 323.425 85.2466 320.835 82.8924" stroke="#1A2E35" stroke-miterlimit="10" stroke-linecap="round" stroke-linejoin="round"/>
<path d="M245.094 51.2269C245.094 65.8757 256.97 77.7512 271.618 77.7512C286.268 77.7512 298.144 65.8757 298.144 51.2269C298.144 36.5771 286.268 24.7026 271.618 24.7026C256.97 24.7026 245.094 36.5771 245.094 51.2269Z" fill="#38BFF2"/>
<g opacity="0.300003">
<g opacity="0.300003">
<path opacity="0.300003" d="M245.501 50.5931C245.501 65.2418 257.377 77.1174 272.026 77.1174C286.676 77.1174 298.551 65.2418 298.551 50.5931C298.551 35.9432 286.676 24.0687 272.026 24.0687C257.377 24.0687 245.501 35.9432 245.501 50.5931Z" fill="white"/>
</g>
</g>
<path d="M245.095 51.227C245.095 65.8757 256.97 77.7513 271.619 77.7513C286.269 77.7513 298.144 65.8757 298.144 51.227C298.144 36.5771 286.269 24.7027 271.619 24.7027C256.97 24.7027 245.095 36.5771 245.095 51.227Z" stroke="#1A2E35" stroke-miterlimit="10" stroke-linecap="round" stroke-linejoin="round"/>
<path d="M323.016 125.897H338.319C345.361 125.897 351.069 120.189 351.069 113.147V97.8438C351.069 90.8025 345.361 85.094 338.319 85.094H323.016C315.975 85.094 310.266 90.8025 310.266 97.8438V113.147C310.266 120.189 315.975 125.897 323.016 125.897Z" fill="#38BFF2"/>
<path d="M323.016 125.897H338.319C345.361 125.897 351.069 120.189 351.069 113.147V97.8438C351.069 90.8025 345.361 85.094 338.319 85.094H323.016C315.975 85.094 310.266 90.8025 310.266 97.8438V113.147C310.266 120.189 315.975 125.897 323.016 125.897Z" stroke="#1A2E35" stroke-miterlimit="10" stroke-linecap="round" stroke-linejoin="round"/>
<path d="M60.7947 45.2253C60.7947 57.7289 70.9313 67.8654 83.4338 67.8654C95.9384 67.8654 106.075 57.7289 106.075 45.2253C106.075 32.7207 95.9384 22.5853 83.4338 22.5853C70.9313 22.5853 60.7947 32.7207 60.7947 45.2253Z" fill="#38BFF2"/>
<g opacity="0.199997">
<g opacity="0.199997">
<path opacity="0.199997" d="M60.6475 45.6644C60.6475 58.168 70.7841 68.3045 83.2865 68.3045C95.7911 68.3045 105.928 58.168 105.928 45.6644C105.928 33.1598 95.7911 23.0244 83.2865 23.0244C70.7841 23.0244 60.6475 33.1598 60.6475 45.6644Z" fill="black"/>
</g>
</g>
<path d="M60.7947 45.2254C60.7947 57.7289 70.9312 67.8655 83.4337 67.8655C95.9383 67.8655 106.075 57.7289 106.075 45.2254C106.075 32.7208 95.9383 22.5853 83.4337 22.5853C70.9312 22.5853 60.7947 32.7208 60.7947 45.2254Z" stroke="#1A2E35" stroke-miterlimit="10" stroke-linecap="round" stroke-linejoin="round"/>
<path d="M170.218 50.4576H190.675C198.682 50.4576 205.175 43.9654 205.175 35.9571V15.5006C205.175 7.49225 198.682 1.00005 190.675 1.00005H170.218C162.209 1.00005 155.717 7.49225 155.717 15.5006V35.9571C155.717 43.9654 162.209 50.4576 170.218 50.4576Z" fill="#38BFF2"/>
<path d="M170.218 50.4576H190.675C198.682 50.4576 205.175 43.9654 205.175 35.9571V15.5006C205.175 7.49225 198.682 1.00005 190.675 1.00005H170.218C162.209 1.00005 155.717 7.49225 155.717 15.5006V35.9571C155.717 43.9654 162.209 50.4576 170.218 50.4576Z" stroke="#1A2E35" stroke-miterlimit="10" stroke-linecap="round" stroke-linejoin="round"/>
<path d="M0.999943 93.1079C0.999943 105.579 11.1088 115.689 23.5814 115.689C36.0529 115.689 46.1617 105.579 46.1617 93.1079C46.1617 80.6363 36.0529 70.5265 23.5814 70.5265C11.1088 70.5265 0.999943 80.6363 0.999943 93.1079Z" fill="#38BFF2"/>
<g opacity="0.300003">
<g opacity="0.300003">
<path opacity="0.300003" d="M1.59351 93.5641C1.59351 106.036 11.7023 116.146 24.1749 116.146C36.6465 116.146 46.7553 106.036 46.7553 93.5641C46.7553 81.0925 36.6465 70.9826 24.1749 70.9826C11.7023 70.9826 1.59351 81.0925 1.59351 93.5641Z" fill="white"/>
</g>
</g>
<path d="M1.0008 93.1077C1.0008 105.579 11.1096 115.689 23.5822 115.689C36.0538 115.689 46.1626 105.579 46.1626 93.1077C46.1626 80.6362 36.0538 70.5263 23.5822 70.5263C11.1096 70.5263 1.0008 80.6362 1.0008 93.1077Z" stroke="#1A2E35" stroke-miterlimit="10" stroke-linecap="round" stroke-linejoin="round"/>
<path d="M290.53 353.137H294.482L295.548 196.131H290.53V353.137Z" fill="#868686"/>
<path d="M290.53 353.137H294.482L295.548 196.131H290.53V353.137Z" stroke="#1A2E35" stroke-width="1.33333" stroke-miterlimit="10" stroke-linecap="round" stroke-linejoin="round"/>
<path d="M286.579 353.137H290.531V196.131H285.513L286.579 353.137Z" fill="#9A9A9A"/>
<path d="M286.579 353.137H290.531V196.131H285.513L286.579 353.137Z" stroke="#1A2E35" stroke-width="1.33333" stroke-miterlimit="10" stroke-linecap="round" stroke-linejoin="round"/>
<path d="M64.7501 196.131H335.789V186.518H64.7501V196.131Z" fill="#1A2E35" stroke="#1A2E35" stroke-width="1.33333" stroke-miterlimit="10" stroke-linecap="round" stroke-linejoin="round"/>
<path d="M8.10492 196.131H68.793V186.518H8.10492V196.131Z" fill="#868686" stroke="#1A2E35" stroke-width="1.33333" stroke-miterlimit="10" stroke-linecap="round" stroke-linejoin="round"/>
<path d="M52.45 211.979H321.908V196.13H52.45V211.979Z" fill="#38BFF2" stroke="#1A2E35" stroke-width="1.33333" stroke-miterlimit="10"/>
<path d="M52.45 211.979H21.0734V196.13H52.45V211.979Z" fill="#38BFF2"/>
<g opacity="0.300003">
<path opacity="0.300003" d="M52.4495 211.979H21.0729V196.131H52.4495V211.979Z" fill="black"/>
</g>
<path d="M52.45 211.979H21.0734V196.13H52.45V211.979Z" stroke="#1A2E35" stroke-width="1.33333" stroke-miterlimit="10"/>
<path d="M52.4492 353.137H56.3996L57.4658 196.131H52.4492V353.137Z" fill="#868686"/>
<path d="M52.4492 353.137H56.3996L57.4658 196.131H52.4492V353.137Z" stroke="#1A2E35" stroke-width="1.33333" stroke-miterlimit="10" stroke-linecap="round" stroke-linejoin="round"/>
<path d="M48.4981 353.137H52.4495V196.131H47.4319L48.4981 353.137Z" fill="#9A9A9A"/>
<path d="M48.4981 353.137H52.4495V196.131H47.4319L48.4981 353.137Z" stroke="#1A2E35" stroke-width="1.33333" stroke-miterlimit="10" stroke-linecap="round" stroke-linejoin="round"/>
<path d="M321.907 353.137H325.859L326.925 196.131H321.907V353.137Z" fill="#868686"/>
<path d="M321.907 353.137H325.859L326.925 196.131H321.907V353.137Z" stroke="#1A2E35" stroke-width="1.33333" stroke-miterlimit="10" stroke-linecap="round" stroke-linejoin="round"/>
<path d="M317.955 353.137H321.907V196.131H316.889L317.955 353.137Z" fill="#9A9A9A"/>
<path d="M317.955 353.137H321.907V196.131H316.889L317.955 353.137Z" stroke="#1A2E35" stroke-width="1.33333" stroke-miterlimit="10" stroke-linecap="round" stroke-linejoin="round"/>
<path d="M21.0732 353.137H25.0235L26.0898 196.131H21.0732V353.137Z" fill="#868686"/>
<path d="M21.0732 353.137H25.0235L26.0898 196.131H21.0732V353.137Z" stroke="#1A2E35" stroke-width="1.33333" stroke-miterlimit="10" stroke-linecap="round" stroke-linejoin="round"/>
<path d="M17.1218 353.137H21.0732V196.131H16.0556L17.1218 353.137Z" fill="#9A9A9A"/>
<path d="M17.1218 353.137H21.0732V196.131H16.0556L17.1218 353.137Z" stroke="#1A2E35" stroke-width="1.33333" stroke-miterlimit="10" stroke-linecap="round" stroke-linejoin="round"/>
<path d="M160.638 185.452H192.404C193.053 185.452 193.58 184.925 193.58 184.275V181.653L159.461 182.719V184.275C159.461 184.925 159.989 185.452 160.638 185.452Z" fill="#868686"/>
<path d="M160.638 185.452H192.404C193.053 185.452 193.58 184.925 193.58 184.275V181.653L159.461 182.719V184.275C159.461 184.925 159.989 185.452 160.638 185.452Z" stroke="#1A2E35" stroke-width="1.33333" stroke-miterlimit="10" stroke-linecap="round" stroke-linejoin="round"/>
<path d="M197.124 185.452H260.984C262.007 185.452 263.005 184.694 263.316 183.68L277.024 139.176C277.4 137.955 276.641 136.872 275.411 136.872H211.549C210.527 136.872 209.529 137.63 209.217 138.644L195.509 183.148C195.133 184.367 195.892 185.452 197.124 185.452Z" fill="#9A9A9A"/>
<path d="M197.124 185.452H260.984C262.007 185.452 263.005 184.694 263.316 183.68L277.024 139.176C277.4 137.955 276.641 136.872 275.411 136.872H211.549C210.527 136.872 209.529 137.63 209.217 138.644L195.509 183.148C195.133 184.367 195.892 185.452 197.124 185.452Z" stroke="#1A2E35" stroke-width="1.33333" stroke-miterlimit="10" stroke-linecap="round" stroke-linejoin="round"/>
<path d="M192.64 183.148L206.348 138.644C206.66 137.63 207.658 136.872 208.681 136.872H211.55C210.527 136.872 209.529 137.63 209.217 138.644L195.51 183.148C195.133 184.368 195.892 185.452 197.124 185.452H194.255C193.023 185.452 192.264 184.368 192.64 183.148Z" fill="#868686"/>
<path d="M192.64 183.148L206.348 138.644C206.66 137.63 207.658 136.872 208.681 136.872H211.55C210.527 136.872 209.529 137.63 209.217 138.644L195.51 183.148C195.133 184.368 195.892 185.452 197.124 185.452H194.255C193.023 185.452 192.264 184.368 192.64 183.148Z" stroke="#1A2E35" stroke-width="1.33333" stroke-miterlimit="10" stroke-linecap="round" stroke-linejoin="round"/>
<path d="M232.317 161.161C232.049 163.343 233.6 165.112 235.782 165.112C237.963 165.112 239.95 163.343 240.217 161.161C240.485 158.98 238.934 157.211 236.752 157.211C234.571 157.211 232.584 158.98 232.317 161.161Z" fill="white"/>
<path d="M232.317 161.161C232.049 163.343 233.6 165.112 235.782 165.112C237.963 165.112 239.95 163.343 240.217 161.161C240.485 158.98 238.934 157.211 236.752 157.211C234.571 157.211 232.584 158.98 232.317 161.161Z" stroke="#1A2E35" stroke-width="1.33333" stroke-miterlimit="10" stroke-linecap="round" stroke-linejoin="round"/>
<path fill-rule="evenodd" clip-rule="evenodd" d="M174.415 12.8333C171.286 12.8333 168.749 15.3702 168.749 18.4998C168.749 21.6293 171.286 24.1663 174.415 24.1663C177.545 24.1663 180.082 21.6293 180.082 18.4998C180.082 15.3702 177.545 12.8333 174.415 12.8333ZM174.415 10C179.109 10 182.915 13.8055 182.915 18.4998C182.915 23.194 179.109 26.9995 174.415 26.9995C169.721 26.9995 165.915 23.194 165.915 18.4998C165.915 13.8055 169.721 10 174.415 10ZM165.915 39.8894C165.915 40.6718 165.281 41.306 164.499 41.306C163.716 41.306 163.082 40.6718 163.082 39.8894V36.9159C163.082 33.004 166.253 29.8328 170.165 29.8328H178.666C182.578 29.8328 185.749 33.004 185.749 36.9159V39.8894C185.749 40.6718 185.115 41.306 184.332 41.306C183.55 41.306 182.916 40.6718 182.916 39.8894V36.9159C182.916 34.5687 181.013 32.666 178.666 32.666H170.165C167.818 32.666 165.915 34.5687 165.915 36.9159V39.8894ZM185.467 12.9466C184.7 12.791 184.204 12.0432 184.36 11.2765C184.516 10.5098 185.263 10.0144 186.03 10.17C189.963 10.9683 192.831 14.4389 192.831 18.4998C192.831 22.5606 189.963 26.0312 186.03 26.8295C185.263 26.9851 184.516 26.4897 184.36 25.723C184.204 24.9563 184.7 24.2085 185.467 24.0529C188.085 23.5214 189.998 21.2067 189.998 18.4998C189.998 15.7929 188.085 13.4782 185.467 12.9466ZM189.999 32.666C189.216 32.666 188.582 32.0318 188.582 31.2494C188.582 30.467 189.216 29.8328 189.999 29.8328C193.911 29.8328 197.082 33.004 197.082 36.9159V39.8894C197.082 40.6718 196.447 41.306 195.665 41.306C194.883 41.306 194.248 40.6718 194.248 39.8894V36.9159C194.248 34.5687 192.346 32.666 189.999 32.666Z" fill="white"/>
<path fill-rule="evenodd" clip-rule="evenodd" d="M271.582 68C261.917 68 254.082 60.165 254.082 50.5C254.082 40.835 261.917 33 271.582 33C281.247 33 289.082 40.835 289.082 50.5C289.082 60.165 281.247 68 271.582 68ZM271.582 65.0833C279.636 65.0833 286.165 58.5542 286.165 50.5C286.165 42.4458 279.636 35.9167 271.582 35.9167C263.528 35.9167 256.999 42.4458 256.999 50.5C256.999 58.5542 263.528 65.0833 271.582 65.0833ZM262.907 55.3362C262.652 54.5721 263.065 53.7462 263.829 53.4915C264.593 53.2368 265.419 53.6498 265.674 54.4138C265.79 54.7626 266.139 55.3902 266.78 56.0313C267.878 57.1294 269.423 57.7917 271.582 57.7917C273.741 57.7917 275.286 57.1294 276.384 56.0313C277.025 55.3902 277.374 54.7626 277.49 54.4138C277.745 53.6498 278.571 53.2368 279.335 53.4915C280.099 53.7462 280.512 54.5721 280.257 55.3362C280.009 56.0812 279.446 57.0942 278.447 58.0937C276.81 59.73 274.527 60.7083 271.582 60.7083C268.637 60.7083 266.354 59.73 264.718 58.0937C263.718 57.0942 263.155 56.0812 262.907 55.3362ZM265.099 47.3384C264.429 47.7852 263.524 47.6041 263.077 46.9339C262.63 46.2638 262.811 45.3584 263.481 44.9116L264.051 44.5318C265.521 43.5521 267.435 43.5521 268.905 44.5318L269.474 44.9116C270.144 45.3584 270.326 46.2638 269.879 46.9339C269.432 47.6041 268.527 47.7852 267.856 47.3384L267.287 46.9587C266.797 46.6321 266.159 46.6321 265.669 46.9587L265.099 47.3384ZM275.308 47.3384C274.637 47.7852 273.732 47.6041 273.285 46.9339C272.839 46.2638 273.02 45.3584 273.69 44.9116L274.259 44.5318C275.729 43.5521 277.643 43.5521 279.113 44.5318L279.683 44.9116C280.353 45.3584 280.534 46.2638 280.087 46.9339C279.64 47.6041 278.735 47.7852 278.065 47.3384L277.495 46.9587C277.005 46.6321 276.367 46.6321 275.877 46.9587L275.308 47.3384Z" fill="white"/>
<path d="M99.0806 32.3108C99.097 31.971 98.9755 31.6257 98.7159 31.3661C98.4564 31.1066 98.1111 30.985 97.7712 31.0015C97.7499 31.0005 97.7285 31 97.707 31H92.832C92.1417 31 91.582 31.5596 91.582 32.25C91.582 32.9404 92.1417 33.5 92.832 33.5H94.8143L90.9277 37.3866C89.7017 36.5135 88.2018 36 86.582 36C85.5868 36 84.6369 36.1938 83.768 36.5458C84.3775 37.1755 84.905 37.885 85.3332 38.6572C85.7324 38.5546 86.1508 38.5 86.582 38.5C89.3434 38.5 91.582 40.7386 91.582 43.5C91.582 46.2614 89.3434 48.5 86.582 48.5C86.1508 48.5 85.7324 48.4454 85.3332 48.3428C84.905 49.115 84.3775 49.8245 83.768 50.4542C84.6369 50.8062 85.5868 51 86.582 51C90.7241 51 94.082 47.6421 94.082 43.5C94.082 41.8802 93.5685 40.3804 92.6954 39.1544L96.582 35.2678V37.25C96.582 37.9404 97.1417 38.5 97.832 38.5C98.5224 38.5 99.082 37.9404 99.082 37.25V32.375C99.082 32.3535 99.0815 32.3321 99.0806 32.3108Z" fill="white"/>
<path fill-rule="evenodd" clip-rule="evenodd" d="M84.082 43.5C84.082 47.2177 81.377 50.3036 77.8278 50.897C77.8306 50.931 77.832 50.9653 77.832 51V53.5H79.082C79.7724 53.5 80.332 54.0596 80.332 54.75C80.332 55.4404 79.7724 56 79.082 56H77.832V58.5C77.832 59.1904 77.2724 59.75 76.582 59.75C75.8917 59.75 75.332 59.1904 75.332 58.5V56H74.082C73.3917 56 72.832 55.4404 72.832 54.75C72.832 54.0596 73.3917 53.5 74.082 53.5H75.332V51C75.332 50.9653 75.3334 50.931 75.3362 50.897C71.787 50.3036 69.082 47.2177 69.082 43.5C69.082 39.3579 72.4399 36 76.582 36C80.7242 36 84.082 39.3579 84.082 43.5ZM81.582 43.5C81.582 46.2614 79.3435 48.5 76.582 48.5C73.8206 48.5 71.582 46.2614 71.582 43.5C71.582 40.7386 73.8206 38.5 76.582 38.5C79.3435 38.5 81.582 40.7386 81.582 43.5Z" fill="white"/>
<path fill-rule="evenodd" clip-rule="evenodd" d="M318.187 100.818L331.011 106.647L343.836 100.818L331.011 94.9883L318.187 100.818ZM313.082 100.818C313.082 100.27 313.374 99.7228 313.958 99.4574L329.775 92.2678C330.561 91.9107 331.462 91.9107 332.248 92.2678L348.065 99.4574C349.233 99.9882 349.233 101.647 348.065 102.178L342.964 104.496V110.864C342.964 111.425 342.806 111.975 342.509 112.451C340.189 116.152 336.291 118 331.011 118C325.732 118 321.834 116.152 319.514 112.451C319.217 111.975 319.059 111.426 319.059 110.864V104.496L316.07 103.138V107.541C316.07 108.366 315.401 109.035 314.576 109.035C313.751 109.035 313.082 108.366 313.082 107.541V100.818V100.818ZM339.976 105.855L332.248 109.367C331.462 109.724 330.561 109.724 329.775 109.367L322.047 105.855L322.047 110.864C323.778 113.627 326.7 115.012 331.012 115.012C335.324 115.012 338.245 113.627 339.976 110.864V105.855V105.855Z" fill="#FCFDFF"/>
<path fill-rule="evenodd" clip-rule="evenodd" d="M33.9154 87.3333V88.625C33.9154 89.3383 33.3371 89.9166 32.6237 89.9166C31.9103 89.9166 31.332 89.3383 31.332 88.625V87.3333H15.832V88.625C15.832 89.3383 15.2537 89.9166 14.5404 89.9166C13.827 89.9166 13.2487 89.3383 13.2487 88.625V87.3333H11.957C11.2437 87.3333 10.6654 87.9116 10.6654 88.625V101.542C10.6654 102.255 11.2437 102.833 11.957 102.833H35.207C35.9204 102.833 36.4987 102.255 36.4987 101.542V88.625C36.4987 87.9116 35.9204 87.3333 35.207 87.3333H33.9154ZM17.1237 84.75V82.1666C17.1237 80.7399 18.2803 79.5833 19.707 79.5833H27.457C28.8838 79.5833 30.0404 80.7399 30.0404 82.1666V84.75H35.207C37.3471 84.75 39.082 86.4849 39.082 88.625V101.542C39.082 103.682 37.3471 105.417 35.207 105.417H11.957C9.81693 105.417 8.08203 103.682 8.08203 101.542V88.625C8.08203 86.4849 9.81693 84.75 11.957 84.75H17.1237ZM19.707 84.75H27.457V82.1666H19.707V84.75Z" fill="white"/>
</svg>
